<?xml version="1.0" encoding="UTF-8" standalone="no"?>
<svg
   xmlns:dc="http://purl.org/dc/elements/1.1/"
   xmlns:cc="http://creativecommons.org/ns#"
   xmlns:rdf="http://www.w3.org/1999/02/22-rdf-syntax-ns#"
   xmlns:svg="http://www.w3.org/2000/svg"
   xmlns="http://www.w3.org/2000/svg"
   xmlns:sodipodi="http://sodipodi.sourceforge.net/DTD/sodipodi-0.dtd"
   xmlns:inkscape="http://www.inkscape.org/namespaces/inkscape"
   version="1.1"
   id="lighthouse"
   x="0px"
   y="0px"
   width="48px"
   height="48px"
   viewBox="0 0 48 48"
   enable-background="new 0 0 48 48"
   xml:space="preserve"
   inkscape:version="0.48.5 r10040"
   sodipodi:docname="lighthouse.svg"><metadata
     id="metadata31"><rdf:RDF><cc:Work
         rdf:about=""><dc:format>image/svg+xml</dc:format><dc:type
           rdf:resource="http://purl.org/dc/dcmitype/StillImage" /></cc:Work></rdf:RDF></metadata><defs
     id="defs29" /><sodipodi:namedview
     pagecolor="#ffffff"
     bordercolor="#666666"
     borderopacity="1"
     objecttolerance="10"
     gridtolerance="10"
     guidetolerance="10"
     inkscape:pageopacity="0"
     inkscape:pageshadow="2"
     inkscape:window-width="1422"
     inkscape:window-height="881"
     id="namedview27"
     showgrid="false"
     inkscape:zoom="4.9166667"
     inkscape:cx="24"
     inkscape:cy="24"
     inkscape:window-x="178"
     inkscape:window-y="135"
     inkscape:window-maximized="0"
     inkscape:current-layer="lighthouse" /><polygon
     points="19,10.001 24,44 6,44 11,10.001 "
     id="polygon3"
     transform="translate(10,0)"
     style="fill:#cfd8dc" /><g
     id="g5"
     transform="translate(10,0)"><polygon
       points="19.588,14 10.412,14 9.235,22 20.765,22 "
       id="polygon7"
       style="fill:#ff3d00" /><polygon
       points="7.029,37 22.971,37 21.794,29 8.206,29 "
       id="polygon9"
       style="fill:#ff3d00" /><rect
       x="12"
       y="6"
       width="6"
       height="6"
       id="rect11"
       style="fill:#ff3d00" /></g><g
     id="g15"
     transform="translate(10,0)"><polygon
       points="18,6 15,4 12,6 "
       id="polygon17"
       style="fill:#d32f2f" /><polygon
       points="10.444,14 10.167,16 19.833,16 19.556,14 "
       id="polygon19"
       style="fill:#d32f2f" /></g><g
     id="g21"
     transform="translate(10,0)"><rect
       x="9"
       y="10.001"
       width="12"
       height="4"
       id="rect23"
       style="fill:#455a64" /><path
       d="m 17,28 v -3 c 0,-1.104 -0.896,-2 -2,-2 -1.104,0 -2,0.896 -2,2 v 3 h 4 z"
       id="path25"
       inkscape:connector-curvature="0"
       style="fill:#455a64" /></g><polygon
     style="fill:#ffc107"
     transform="matrix(0.70338983,0,0,1,16.322034,-1.2203389)"
     id="polygon3008"
     points="42,5 42,14 18,10 18,8 " /><polygon
     style="fill:#ffc107"
     transform="matrix(-0.68644067,0,0,1,32.796609,-1.2203388)"
     id="polygon3034"
     points="18,10 18,8 42,5 42,14 " /></svg>